<?xml version="1.0" standalone="no"?>
<!DOCTYPE svg PUBLIC "-//W3C//DTD SVG 20010904//EN"
 "http://www.w3.org/TR/2001/REC-SVG-20010904/DTD/svg10.dtd">
<svg version="1.0" xmlns="http://www.w3.org/2000/svg"
 width="300.000000pt" height="253.000000pt" viewBox="0 0 300.000000 253.000000"
 preserveAspectRatio="xMidYMid meet">
<metadata>
Created by potrace 1.10, written by Peter Selinger 2001-2011
</metadata>
<g transform="translate(0.000000,253.000000) scale(0.100000,-0.100000)"
fill="#000000" stroke="none">
<path d="M1500 2020 c20 -13 33 -13 25 0 -3 6 -14 10 -23 10 -15 0 -15 -2 -2
-10z"/>
<path d="M1595 2022 c6 -6 70 -14 143 -18 l133 -7 93 -76 c90 -74 102 -87 128
-143 12 -26 15 -27 106 -30 52 -2 99 0 104 3 6 4 7 16 4 27 -5 15 -1 24 13 31
25 14 17 44 -15 62 -20 10 -32 10 -58 1 -18 -7 -52 -13 -77 -13 -42 -2 -41 -2
16 -9 34 -5 64 -4 69 1 13 12 43 12 50 0 4 -5 4 -16 1 -24 -4 -10 -25 -14 -78
-15 -85 -2 -144 12 -151 36 -3 9 -31 37 -61 61 -30 24 -55 47 -55 51 0 5 -21
19 -48 33 -41 21 -66 26 -187 32 -97 5 -137 4 -130 -3z m540 -232 c3 -5 2 -10
-4 -10 -5 0 -13 5 -16 10 -3 6 -2 10 4 10 5 0 13 -4 16 -10z m109 -9 c4 -5 -3
-7 -14 -4 -23 6 -26 13 -6 13 8 0 17 -4 20 -9z"/>
<path d="M1545 1996 c-61 -23 -79 -52 -23 -35 47 13 46 14 53 -45 6 -46 4 -59
-17 -92 -14 -22 -33 -52 -42 -67 -14 -23 -20 -26 -32 -16 -11 9 -14 9 -14 -1
0 -8 -3 -10 -6 -7 -4 4 -1 13 6 22 9 11 9 15 1 15 -8 0 -10 9 -7 23 3 12 3 17
0 11 -3 -7 -14 -9 -26 -6 -18 4 -19 3 -9 -17 9 -16 9 -21 -1 -21 -7 0 -2 -9
12 -20 14 -10 27 -17 29 -14 6 6 41 -27 41 -38 0 -5 -6 -6 -12 -2 -7 4 -10 4
-6 0 4 -5 -4 -19 -17 -32 -29 -29 -39 -31 -26 -5 9 16 8 18 -9 14 -11 -3 -17
-9 -14 -14 3 -5 -13 -9 -35 -9 -41 0 -56 15 -23 23 13 4 12 5 -5 6 -23 1 -28
-10 -51 -117 -15 -65 3 -59 22 8 15 54 19 59 45 58 15 -1 34 3 41 7 22 13 2
-96 -21 -121 -18 -19 -19 -25 -8 -43 12 -19 15 -16 31 42 9 34 17 71 18 82 0
21 37 51 48 39 4 -4 1 -9 -5 -11 -7 -3 -13 -9 -13 -14 0 -6 5 -7 10 -4 6 3 13
-1 16 -9 6 -16 9 -16 79 0 20 5 20 5 1 -10 -61 -49 -126 -119 -126 -137 0 -5
33 24 73 65 41 42 80 76 88 76 11 -1 11 -3 -2 -13 -75 -58 -151 -149 -179
-217 -7 -17 -18 -29 -24 -27 -13 5 -15 -20 -18 -209 -1 -83 2 -137 9 -145 6
-8 16 -32 23 -54 17 -54 46 -110 72 -141 28 -31 188 -108 188 -89 0 8 -72 45
-80 40 -5 -3 -12 0 -16 6 -5 8 -3 9 7 4 12 -7 12 -6 1 7 -8 9 -20 14 -28 11
-8 -3 -14 0 -14 6 0 6 5 11 12 11 7 0 6 5 -4 13 -24 19 -59 75 -61 96 0 11 -5
17 -9 15 -15 -10 -8 -36 22 -81 17 -25 29 -47 27 -49 -7 -7 -77 88 -71 97 3 5
0 9 -6 9 -6 0 -9 4 -6 8 3 5 -4 33 -16 63 -30 77 -37 244 -13 324 20 71 48
128 86 176 26 33 64 50 56 25 -2 -6 -9 -11 -15 -11 -6 0 -17 -6 -24 -14 -11
-11 -11 -13 1 -6 9 5 12 3 9 -6 -3 -8 -11 -13 -17 -12 -17 4 -71 -112 -87
-186 -7 -36 -13 -91 -12 -121 1 -52 1 -51 9 22 4 42 13 96 19 120 16 61 61
159 70 153 5 -3 31 22 59 54 29 33 73 73 98 90 26 17 42 31 36 31 -5 0 -35
-18 -66 -40 -32 -22 -57 -37 -57 -33 0 3 -9 -2 -20 -12 -11 -10 -20 -13 -20
-7 0 16 97 87 151 111 45 20 171 41 157 26 -4 -4 -3 -16 3 -26 8 -15 13 -17
28 -7 11 7 17 18 13 27 -4 13 -1 12 16 -3 12 -11 22 -15 22 -9 0 5 10 9 23 7
12 -1 25 -3 30 -3 4 -1 7 -6 7 -12 0 -7 -10 -9 -26 -5 -19 5 -24 3 -18 -5 5
-9 1 -10 -14 -7 -12 4 -20 3 -17 -1 2 -4 -12 -15 -31 -24 -42 -20 -47 -21 -38
-4 4 7 3 9 -2 4 -5 -5 -9 -14 -9 -20 0 -5 -6 -12 -14 -15 -9 -3 -11 0 -6 8 5
9 4 11 -4 6 -6 -4 -9 -11 -7 -15 3 -4 -11 -23 -30 -42 -20 -19 -52 -60 -71
-91 -20 -32 -38 -58 -40 -58 -7 0 46 90 66 115 36 43 41 58 7 20 -39 -43 -107
-175 -125 -240 -5 -22 -12 -80 -15 -130 -4 -71 -3 -81 4 -45 5 25 12 65 15 89
6 55 25 123 38 136 6 6 7 1 3 -15 -3 -14 -9 -44 -12 -67 -6 -39 -5 -43 14 -43
17 0 24 9 32 43 6 23 15 50 20 59 13 22 13 38 0 38 -5 0 -7 -7 -4 -15 3 -8 0
-17 -8 -20 -8 -3 -15 -11 -16 -18 -1 -21 -13 -71 -18 -76 -21 -21 -1 90 30
161 18 41 31 54 41 38 5 -8 14 -5 27 7 12 10 19 14 16 8 -2 -5 -16 -35 -30
-66 -15 -31 -29 -78 -32 -105 -6 -44 -4 -42 19 29 26 83 61 150 75 142 4 -3
14 3 21 13 13 15 12 16 -3 3 -37 -28 -16 6 30 52 47 46 78 64 51 30 -13 -16
-12 -17 3 -4 10 7 15 17 12 22 -7 13 91 57 143 65 43 6 153 -6 121 -13 -10 -3
-18 -9 -18 -15 0 -5 7 -7 15 -4 8 3 22 9 32 13 12 5 14 3 8 -7 -5 -8 -3 -11 6
-8 8 3 34 -4 59 -14 32 -14 41 -15 30 -5 -25 24 -113 67 -137 67 -13 0 -23 4
-23 9 0 16 -124 3 -182 -19 -31 -11 -78 -37 -105 -57 -64 -50 -70 -56 -65 -71
2 -7 0 -12 -5 -11 -18 4 -41 -13 -36 -27 3 -9 -2 -14 -16 -14 -20 0 -21 1 -6
24 9 13 23 27 31 30 9 3 13 10 10 15 -8 13 72 79 124 104 25 11 68 26 95 32
34 9 42 13 24 14 -15 1 -32 7 -38 15 -7 8 -20 15 -29 15 -9 0 -58 3 -108 7
-69 5 -103 3 -146 -10 -31 -9 -83 -16 -115 -16 l-59 0 4 41 c3 30 8 39 19 35
8 -3 21 -6 29 -6 8 0 14 -4 14 -10 0 -5 -6 -7 -12 -5 -18 7 -42 -11 -34 -24
11 -16 26 -13 20 4 -8 19 0 19 20 -1 15 -14 17 -13 26 11 13 34 6 45 -31 45
-25 0 -29 3 -25 24 2 13 14 42 25 64 23 45 25 52 14 52 -17 0 -72 -128 -78
-182 -5 -35 -12 -58 -19 -58 -23 0 6 120 46 191 l37 66 48 -7 c26 -5 127 -10
223 -13 113 -4 154 -3 115 3 -33 4 -131 11 -217 15 l-157 8 -5 26 c-3 14 -8
47 -11 74 -3 26 -9 46 -13 46 -4 -1 -20 -6 -37 -13z m345 -382 c0 -8 -4 -12
-10 -9 -5 3 -10 10 -10 16 0 5 5 9 10 9 6 0 10 -7 10 -16z m-87 -219 c-3 -9
-8 -14 -10 -11 -3 3 -2 9 2 15 9 16 15 13 8 -4z"/>
<path d="M1370 1976 c0 -30 16 -42 35 -26 9 7 29 15 47 19 58 12 45 31 -21 31
-58 0 -61 -1 -61 -24z"/>
<path d="M1345 1923 c-36 -9 -41 -23 -8 -23 17 0 36 7 43 15 13 16 6 18 -35 8z"/>
<path d="M1065 1899 c-4 -6 -17 -14 -29 -19 -19 -8 -17 -9 10 -9 19 -1 34 -7
38 -16 3 -8 17 -15 31 -15 15 0 24 -4 20 -10 -3 -5 4 -10 17 -11 13 0 43 -2
68 -3 25 -2 73 -4 108 -4 34 -1 62 -6 62 -12 0 -12 -147 -13 -207 -1 -24 5
-43 4 -43 0 0 -11 -94 -10 -135 2 -23 6 -15 7 32 5 44 -1 64 2 67 11 4 10 -16
12 -90 12 -52 -1 -97 -6 -100 -11 -4 -7 -9 -7 -13 0 -3 6 -58 13 -122 17
l-116 8 -7 -37 c-5 -24 -11 -34 -19 -29 -16 9 -97 12 -121 3 -26 -9 146 -30
322 -38 134 -7 142 -6 142 12 0 16 -7 18 -75 14 -72 -4 -75 -4 -75 18 0 18 4
21 21 17 14 -4 17 -8 8 -13 -6 -4 15 -8 47 -8 99 -1 375 -12 441 -18 55 -5 62
-4 61 13 0 10 1 23 3 28 2 6 0 25 -4 43 -6 28 -11 32 -39 33 -36 1 -121 5
-183 9 l-40 3 35 7 c28 6 21 8 -37 9 -42 0 -75 -3 -78 -10z m62 -5 c-3 -3 -12
-4 -19 -1 -8 3 -5 6 6 6 11 1 17 -2 13 -5z m55 -32 c4 10 11 11 36 1 18 -6 32
-8 32 -3 0 11 28 6 41 -7 14 -14 -24 -28 -43 -17 -7 4 -30 7 -51 5 -40 -2 -71
14 -61 31 3 5 14 2 24 -7 14 -13 19 -13 22 -3z m153 -22 c-5 -8 -11 -8 -17 -2
-6 6 -7 16 -3 22 5 8 11 8 17 2 6 -6 7 -16 3 -22z m42 0 c-1 -17 -3 -18 -15
-6 -8 8 -11 19 -7 25 9 16 24 4 22 -19z m-585 -29 c21 -1 27 -6 25 -18 -2 -18
-8 -23 -28 -23 -5 0 -8 4 -5 8 3 5 -1 9 -9 9 -8 0 -15 -3 -15 -7 0 -3 -20 -2
-44 4 -58 13 -52 39 8 32 22 -3 53 -5 68 -5z m158 -11 c0 -5 -10 -10 -22 -10
-19 0 -20 2 -8 10 19 13 30 13 30 0z m-237 -37 c-7 -2 -21 -2 -30 0 -10 3 -4
5 12 5 17 0 24 -2 18 -5z"/>
<path d="M1228 1903 c6 -2 18 -2 25 0 6 3 1 5 -13 5 -14 0 -19 -2 -12 -5z"/>
<path d="M707 1860 c24 -10 369 -12 359 -3 -3 3 -90 7 -193 9 -118 2 -180 -1
-166 -6z"/>
<path d="M1615 1780 c-32 -63 -27 -78 7 -18 l24 43 134 -3 c74 -2 170 -7 213
-11 42 -4 77 -3 77 1 0 11 -33 16 -155 23 -60 3 -147 8 -192 12 l-81 6 -27
-53z"/>
<path d="M1652 1778 c-18 -18 -15 -36 9 -48 15 -9 24 -8 35 1 18 15 18 24 -2
43 -19 19 -26 20 -42 4z m38 -23 c0 -8 -7 -15 -15 -15 -8 0 -15 7 -15 15 0 8
7 15 15 15 8 0 15 -7 15 -15z"/>
<path d="M1721 1753 c-1 -28 2 -33 22 -33 20 1 20 2 6 13 -9 7 -19 21 -22 32
-3 13 -5 9 -6 -12z"/>
<path d="M1754 1768 c3 -7 9 -21 12 -30 4 -10 10 -18 15 -18 5 0 6 6 3 14 -3
8 -1 17 5 21 6 3 11 11 11 17 0 7 -6 6 -15 -2 -10 -9 -15 -9 -15 -1 0 6 -5 11
-11 11 -6 0 -8 -6 -5 -12z"/>
<path d="M1810 1751 c0 -24 4 -29 20 -28 21 1 26 12 11 21 -5 4 -12 0 -15 -6
-3 -7 -3 -1 0 15 4 16 2 27 -5 27 -6 0 -11 -13 -11 -29z"/>
<path d="M1850 1758 c0 -7 5 -20 10 -28 8 -12 10 -9 10 13 0 15 -4 27 -10 27
-5 0 -10 -6 -10 -12z"/>
<path d="M1885 1746 c2 -29 15 -49 15 -23 0 11 8 17 21 17 29 0 18 24 -12 28
-21 2 -25 -1 -24 -22z"/>
<path d="M1947 1750 c-7 -29 3 -43 29 -38 20 3 34 58 15 58 -6 0 -11 -12 -11
-27 0 -30 -15 -21 -22 12 -3 18 -5 17 -11 -5z"/>
<path d="M2019 1768 c-1 -2 -3 -15 -5 -30 -2 -24 1 -28 21 -28 31 0 43 20 16
27 -12 3 -21 9 -21 14 0 5 7 5 17 2 11 -4 14 -3 9 5 -6 10 -34 17 -37 10z"/>
<path d="M995 1739 c-7 -20 -11 -20 -168 -14 -89 4 -189 11 -222 16 -85 13
-115 11 -115 -5 0 -17 66 -23 406 -36 148 -5 289 -12 312 -15 50 -7 72 6 72
40 0 19 -7 23 -46 29 -26 3 -89 6 -140 6 -85 0 -93 -2 -99 -21z m155 -9 c0
-25 -5 -27 -71 -19 -100 12 -94 34 10 34 50 1 61 -2 61 -15z m40 10 c0 -5 -5
-10 -11 -10 -5 0 -7 5 -4 10 3 6 8 10 11 10 2 0 4 -4 4 -10z m40 -32 c0 -4
-13 -6 -30 -5 -33 2 -42 17 -10 17 11 0 20 6 20 13 0 13 20 -11 20 -25z m30
20 c0 -4 -4 -8 -9 -8 -6 0 -12 4 -15 8 -3 5 1 9 9 9 8 0 15 -4 15 -9z"/>
<path d="M1298 1743 c6 -2 18 -2 25 0 6 3 1 5 -13 5 -14 0 -19 -2 -12 -5z"/>
<path d="M2087 1729 c4 -13 8 -18 11 -10 2 7 -1 18 -6 23 -8 8 -9 4 -5 -13z"/>
<path d="M2335 1740 c4 -6 11 -8 16 -5 14 9 11 15 -7 15 -8 0 -12 -5 -9 -10z"/>
<path d="M2120 1712 c0 -18 10 -20 103 -27 56 -3 107 -6 112 -5 6 1 29 2 52 1
30 -1 43 -6 46 -18 4 -14 5 -13 6 4 1 17 -6 25 -26 30 -16 4 -34 6 -41 4 -8
-1 -19 2 -25 7 -7 5 -52 10 -102 11 -49 1 -98 4 -107 7 -13 4 -18 0 -18 -14z"/>
<path d="M1366 1709 c-16 -4 -33 -6 -38 -3 -4 3 -16 1 -25 -5 -15 -8 -16 -10
-3 -15 33 -10 110 -13 110 -4 0 6 14 8 30 6 17 -3 30 -1 30 4 0 17 -66 28
-104 17z"/>
<path d="M480 1660 c0 -59 5 -63 13 -11 6 35 24 54 40 44 6 -3 23 -6 38 -5 22
0 29 -4 29 -19 0 -10 6 -19 13 -19 8 0 7 -4 -3 -11 -12 -8 -12 -12 -2 -16 10
-4 10 -8 0 -21 -9 -10 -9 -13 -1 -9 8 5 11 0 10 -17 -1 -14 3 -26 8 -28 6 -2
11 29 13 75 l4 77 -44 0 c-24 0 -60 3 -80 6 l-38 7 0 -53z"/>
<path d="M680 1680 c19 -4 39 -6 44 -3 5 4 6 1 2 -5 -3 -6 3 -13 14 -17 13 -4
20 -16 21 -33 2 -26 2 -26 6 -3 3 16 -1 29 -11 37 -15 10 -14 12 6 17 14 4 26
0 34 -11 8 -9 14 -12 14 -7 0 14 100 16 100 3 0 -7 5 -7 13 -1 6 5 30 8 52 7
22 -1 68 -3 102 -5 34 -1 60 -6 57 -11 -4 -5 -12 -7 -19 -4 -13 4 -25 -12 -31
-42 -2 -10 2 -9 15 2 10 9 35 16 57 16 l39 0 -25 21 c-16 14 -19 19 -7 15 9
-3 17 -2 17 3 0 13 -84 20 -320 25 -134 3 -202 2 -180 -4z"/>
<path d="M1660 1674 c8 -2 86 -8 173 -14 176 -12 219 -18 211 -31 -3 -5 0 -9
6 -9 7 0 14 9 17 21 5 18 11 20 43 15 20 -3 90 -8 156 -10 94 -4 104 -3 49 4
-38 4 -98 8 -132 9 -35 0 -63 6 -63 11 0 13 -33 13 -47 -1 -8 -8 -60 -8 -187
0 -169 11 -258 13 -226 5z"/>
<path d="M515 1659 c-4 -6 1 -17 11 -24 17 -13 17 -16 4 -25 -13 -8 -13 -10 1
-10 17 0 43 46 34 61 -8 12 -42 11 -50 -2z m36 -12 c-1 -12 -15 -9 -19 4 -3 6
1 10 8 8 6 -3 11 -8 11 -12z"/>
<path d="M1198 1663 c7 -3 16 -2 19 1 4 3 -2 6 -13 5 -11 0 -14 -3 -6 -6z"/>
<path d="M1250 1660 c0 -13 50 -13 70 0 11 7 4 10 -27 10 -24 0 -43 -4 -43
-10z"/>
<path d="M2085 1640 c-4 -6 -2 -10 4 -10 5 0 11 -8 13 -17 3 -15 5 -14 10 4 6
22 -16 41 -27 23z"/>
<path d="M936 1619 c-11 -16 -25 -21 -61 -22 -30 0 -49 -5 -52 -14 -9 -24 16
-41 60 -39 38 2 43 5 48 32 l7 29 1 -32 c1 -22 6 -33 16 -33 11 0 15 10 14 38
l-2 37 -7 -35 -7 -35 -2 33 c0 17 -1 35 -1 40 0 4 6 7 13 7 7 0 14 -17 17 -40
5 -43 28 -57 55 -35 37 31 4 106 -35 82 -12 -7 -21 -8 -25 -2 -10 16 -23 12
-39 -11z m99 -29 c0 -29 -4 -36 -22 -38 -20 -3 -23 1 -23 31 0 38 7 49 30 45
10 -2 15 -15 15 -38z m-152 -16 c-5 -14 -33 -27 -41 -19 -3 3 1 5 8 5 10 0 9
4 -3 13 -15 11 -14 12 12 12 18 1 27 -3 24 -11z m37 -6 c0 -19 -2 -20 -10 -8
-8 12 -10 12 -10 1 0 -8 -3 -11 -6 -8 -6 6 13 37 22 37 2 0 4 -10 4 -22z"/>
<path d="M1001 1588 l1 -33 8 30 7 30 5 -30 5 -30 2 33 c1 22 -3 32 -14 32
-10 0 -15 -10 -14 -32z"/>
<path d="M1275 1626 c-15 -8 -19 -19 -17 -45 l4 -35 19 44 c11 23 18 44 17 45
-2 1 -12 -3 -23 -9z"/>
<path d="M2130 1618 c0 -18 18 -34 28 -24 3 4 -2 14 -11 23 -16 16 -17 16 -17
1z"/>
<path d="M2170 1619 c0 -12 30 -19 83 -20 29 0 72 -4 97 -7 44 -7 45 -8 42
-42 -5 -63 11 -68 18 -5 4 33 6 61 6 62 -3 6 -246 17 -246 12z"/>
<path d="M1816 1605 c-11 -8 -16 -21 -13 -30 10 -24 29 -18 22 8 -6 20 -5 21
8 5 25 -31 39 -17 15 15 -11 14 -15 14 -32 2z"/>
<path d="M1116 1588 c-32 -46 -13 -108 33 -108 57 0 85 82 39 114 -31 22 -54
20 -72 -6z m54 8 c0 -2 -7 -6 -15 -10 -8 -3 -15 -1 -15 4 0 6 7 10 15 10 8 0
15 -2 15 -4z m8 -61 c0 -31 -5 -45 -14 -45 -13 0 -13 8 -5 83 1 4 5 7 11 7 5
0 9 -20 8 -45z m-48 3 c0 -21 -3 -29 -10 -22 -5 5 -7 19 -4 32 9 31 14 27 14
-10z"/>
<path d="M470 1584 c0 -12 6 -15 23 -11 l22 6 -22 -17 c-20 -16 -21 -26 -22
-132 -1 -63 -3 -149 -6 -190 -2 -41 -7 -142 -10 -225 -3 -82 -8 -164 -11 -181
-3 -18 -1 -35 5 -38 6 -4 11 -1 12 6 0 7 2 20 3 28 2 8 6 94 10 190 4 96 9
189 11 205 2 17 5 93 5 170 2 124 4 142 22 162 20 21 20 21 0 32 -29 15 -42
14 -42 -5z"/>
<path d="M1757 1592 c8 -5 -8 -18 -42 -36 -60 -31 -130 -100 -119 -118 4 -7 3
-8 -4 -4 -13 8 -55 -61 -83 -134 -79 -209 -18 -461 139 -573 34 -25 45 -28 55
-18 9 10 8 11 -5 6 -11 -4 -18 -2 -18 4 0 6 -7 11 -16 11 -8 0 -12 5 -9 10 3
6 -1 10 -9 10 -17 0 -20 10 -8 25 4 6 3 7 -2 2 -18 -13 -28 -7 -23 13 3 11 1
18 -4 14 -5 -3 -14 -2 -20 2 -8 4 -7 9 2 15 11 7 10 9 -5 9 -12 0 -16 5 -12
16 3 8 2 12 -3 9 -5 -3 -12 -1 -16 4 -3 6 3 15 14 21 12 6 26 20 32 33 10 18
7 16 -15 -6 -14 -16 -32 -27 -39 -24 -17 5 -21 48 -5 59 10 8 9 9 -4 5 -12 -4
-19 3 -26 31 -9 35 -7 39 37 85 25 26 38 45 29 41 -10 -3 -18 -2 -18 4 0 5 7
13 15 16 9 3 15 11 14 18 -1 7 1 21 6 31 4 11 3 23 -3 29 -8 8 -7 15 6 25 15
13 15 14 -9 9 -26 -6 -28 -4 -57 57 -2 4 1 7 6 7 5 0 15 -13 22 -30 8 -18 17
-27 24 -23 6 4 14 8 19 9 4 1 10 2 15 3 4 1 2 5 -4 9 -6 4 -22 28 -36 53 -19
33 -23 50 -16 62 14 26 22 21 47 -30 14 -28 26 -42 29 -34 2 7 -2 17 -9 22 -8
5 -11 9 -6 10 4 1 12 3 17 4 6 1 13 3 18 4 4 1 2 5 -5 9 -16 10 -46 82 -34 82
5 0 14 -14 21 -30 7 -17 17 -33 23 -37 11 -7 10 -5 -17 60 -9 20 -12 37 -7 37
5 0 15 -16 21 -35 6 -19 16 -35 21 -35 13 0 12 6 -10 50 -11 22 -15 42 -11 45
5 3 14 -11 20 -30 6 -19 16 -33 20 -30 5 3 2 22 -8 41 -16 34 -16 36 3 50 17
13 20 11 32 -17 13 -31 14 -31 33 -14 15 13 17 22 10 36 -12 22 -13 29 -1 29
5 0 11 -9 14 -21 3 -12 10 -18 16 -15 18 11 -19 66 -44 66 -5 0 -5 -4 2 -8z
m-7 -41 c0 -5 3 -18 6 -28 5 -16 4 -16 -10 1 -18 23 -20 36 -6 36 6 0 10 -4
10 -9z m-132 -156 c15 -32 15 -35 2 -35 -5 0 -9 3 -8 8 1 4 -3 17 -10 30 -7
12 -9 22 -4 22 5 0 14 -11 20 -25z m-28 -127 c0 -5 -5 -8 -11 -8 -5 0 -7 5 -4
10 3 6 1 10 -6 10 -7 0 -9 3 -6 6 4 4 -3 15 -14 25 -12 10 -18 23 -13 30 4 8
15 -2 30 -27 13 -22 24 -42 24 -46z m-57 -11 c7 -7 23 -28 36 -46 19 -27 21
-35 10 -42 -8 -5 -17 -9 -21 -9 -5 0 -8 -4 -8 -10 0 -5 7 -7 15 -4 8 4 15 1
15 -6 0 -6 -4 -8 -10 -5 -5 3 -10 1 -10 -4 0 -6 -5 -11 -11 -11 -5 0 -7 5 -4
10 10 16 -7 12 -28 -7 -16 -14 -19 -15 -15 -3 2 8 19 24 36 35 31 20 41 35 22
35 -6 0 -18 -9 -27 -20 -10 -11 -21 -20 -26 -20 -5 0 -4 6 2 13 6 8 7 17 3 21
-4 4 1 13 11 21 18 13 14 46 -6 41 -7 -1 -9 -1 -4 1 4 3 5 9 1 14 -8 14 6 11
19 -4z m7 -147 c0 -6 -7 -13 -15 -16 -8 -4 -15 -11 -15 -17 0 -5 9 -2 20 8 11
10 23 15 26 12 5 -5 -42 -57 -51 -57 -7 0 -1 57 7 68 13 15 28 16 28 2z"/>
<path d="M1530 1200 c-8 -5 -12 -11 -9 -14 3 -3 14 1 25 9 21 16 8 20 -16 5z"/>
<path d="M542 1558 c3 -27 9 -34 43 -47 51 -19 50 -18 36 -35 -14 -17 -7 -36
12 -35 8 0 8 2 -1 6 -22 9 35 53 69 53 21 0 34 -8 47 -27 l17 -28 164 3 c114
2 188 -2 243 -13 95 -18 101 -18 93 -5 -4 6 -10 8 -13 6 -4 -2 -23 -1 -42 4
-33 8 -33 8 17 9 74 1 89 -6 60 -31 -17 -15 -18 -18 -4 -14 12 4 17 0 17 -14
0 -10 -4 -22 -10 -25 -5 -3 -10 1 -10 9 0 9 -4 16 -10 16 -15 0 -12 -15 10
-43 22 -28 26 -42 9 -31 -7 4 -25 7 -40 6 -19 0 -29 4 -29 14 0 8 -7 14 -15
14 -10 0 -12 -6 -8 -17 6 -16 5 -17 -12 -3 -14 12 -19 12 -23 2 -3 -10 -7 -10
-20 0 -12 10 -16 10 -19 1 -7 -20 -89 -17 -97 3 -3 9 -4 19 -2 22 5 9 -47 7
-61 -1 -6 -4 -13 -2 -15 3 -2 7 -11 4 -23 -5 -19 -15 -17 -16 35 -11 34 4 49
3 40 -3 -8 -5 -44 -11 -80 -15 -42 -3 -56 -2 -40 3 22 8 23 9 4 10 -11 1 -35
-6 -53 -15 -24 -12 -36 -13 -44 -5 -8 8 -5 11 14 12 13 1 28 1 32 0 5 -1 6 3
2 9 -4 6 9 10 33 10 23 0 45 6 52 15 7 8 23 15 37 15 14 0 21 4 18 10 -9 14 5
12 35 -5 14 -8 39 -14 57 -15 17 0 35 -5 39 -11 4 -7 -4 -10 -22 -9 -51 4 -61
1 -41 -11 20 -12 77 -3 77 12 0 6 4 8 8 5 4 -2 13 4 20 15 7 11 8 19 2 19 -5
0 -10 -5 -10 -10 0 -11 -52 -5 -80 10 -10 5 -20 7 -22 4 -3 -2 -18 0 -33 6
-19 7 -31 7 -40 0 -8 -6 -16 -7 -19 -2 -11 19 10 23 91 16 58 -5 83 -3 83 4 0
7 -22 11 -57 10 -32 -1 -88 2 -124 6 -47 5 -69 4 -74 -4 -5 -8 3 -9 28 -5 21
4 37 3 41 -4 5 -7 -3 -11 -21 -12 -15 0 -37 -2 -48 -4 -68 -13 -95 -15 -95 -5
0 6 -5 8 -12 4 -7 -4 -8 -3 -4 4 5 8 21 10 45 6 21 -3 41 -2 44 2 3 5 -7 10
-21 10 -15 1 -37 4 -49 7 -16 4 -24 0 -28 -14 -14 -42 -88 -48 -100 -8 -4 11
-15 19 -28 19 -22 -1 -22 -1 2 -14 18 -10 20 -15 10 -19 -10 -4 -9 -6 4 -6 9
-1 17 -6 17 -12 0 -5 -4 -7 -10 -4 -5 3 -10 2 -10 -4 0 -5 25 -13 55 -16 30
-4 58 -11 61 -16 3 -5 10 -6 17 -2 7 4 4 9 -9 15 -14 6 -11 7 9 3 20 -4 27 -2
22 6 -4 6 -20 9 -36 7 -16 -3 -29 -1 -29 4 0 4 3 8 8 9 4 0 30 1 57 3 28 1 58
5 68 10 12 6 17 4 17 -9 0 -15 1 -15 16 -1 8 9 25 16 36 16 19 0 19 -1 -3 -19
-23 -19 -36 -20 -73 -5 -13 5 -17 4 -13 -3 5 -7 -1 -10 -15 -7 -13 2 -17 2
-10 -2 6 -3 12 -10 12 -15 0 -6 -5 -7 -10 -4 -6 4 -18 1 -27 -7 -22 -18 -85
-17 -101 2 -12 13 -13 13 -8 -3 5 -15 0 -17 -29 -14 -19 3 -35 0 -35 -5 0 -4
27 -6 60 -4 33 2 63 0 66 -5 3 -5 13 -5 25 1 13 8 19 7 19 0 0 -6 8 -10 18 -8
9 1 23 -1 31 -6 10 -6 12 -5 7 2 -5 9 8 12 46 12 29 0 70 4 91 9 21 5 37 5 37
0 0 -5 -10 -9 -22 -10 l-23 0 22 -11 c27 -13 28 -58 2 -58 -10 0 -25 -3 -35
-7 -10 -4 -15 -2 -11 3 3 6 -31 11 -91 12 -53 1 -98 6 -101 11 -6 9 -151 16
-151 7 0 -3 11 -12 24 -21 23 -15 61 -11 50 6 -6 10 19 12 29 2 9 -8 48 -13
100 -12 24 0 36 -4 33 -10 -11 -17 38 -41 72 -37 18 2 32 -1 32 -5 0 -5 9 -9
20 -9 11 0 20 6 20 14 0 10 -13 13 -47 12 -27 -1 -58 3 -71 10 l-23 11 23 6
c12 4 27 3 32 -2 6 -4 35 -7 64 -6 31 1 48 -2 40 -6 -8 -5 -9 -9 -2 -9 6 0 9
-10 7 -24 -4 -20 -10 -23 -46 -22 -24 0 -42 -4 -45 -12 -2 -6 -16 -12 -30 -13
-21 0 -23 -2 -10 -7 10 -4 39 -5 65 -3 l48 5 -35 7 -35 6 43 2 c31 1 42 -3 40
-11 -3 -7 -14 -14 -26 -16 -12 -2 -22 -8 -22 -13 0 -5 12 -6 28 -3 24 7 26 6
14 -9 -8 -9 -20 -13 -27 -11 -7 3 -24 0 -36 -7 -34 -18 -105 -20 -119 -4 -9
11 -3 15 35 20 25 4 49 5 52 1 4 -3 -8 -6 -25 -6 -17 0 -33 -4 -36 -9 -8 -12
86 7 99 20 7 8 4 9 -12 5 -12 -4 -24 -3 -27 2 -3 5 -25 5 -53 0 -26 -5 -63 -9
-81 -9 -23 1 -31 -3 -26 -11 4 -6 3 -8 -4 -4 -5 3 -12 2 -14 -3 -2 -6 -18 -3
-37 6 -19 10 -28 19 -22 21 7 2 18 -1 24 -7 17 -17 31 -13 17 4 -14 17 -56 20
-65 4 -5 -7 -14 -4 -28 8 -11 10 -17 12 -13 6 4 -8 2 -13 -6 -13 -8 0 -6 -5 5
-11 9 -6 25 -8 35 -5 10 4 26 0 37 -8 17 -12 15 -13 -17 -11 -19 1 -40 5 -47
9 -6 4 -11 3 -11 -3 0 -22 70 -24 177 -7 18 3 35 1 38 -5 4 -5 -11 -10 -32
-10 -21 -1 -51 -4 -68 -8 -16 -4 -49 -4 -72 0 -29 4 -43 2 -43 -5 0 -7 15 -10
38 -8 26 3 42 -1 51 -12 12 -14 10 -16 -8 -16 -12 0 -19 5 -16 10 3 6 1 10 -5
10 -7 0 -10 -7 -6 -15 3 -9 0 -15 -10 -15 -9 0 -12 5 -8 13 6 9 5 9 -7 0 -10
-8 -19 -9 -25 -3 -6 6 -10 0 -9 -18 0 -15 5 -30 10 -34 15 -11 63 -10 70 2 3
6 19 10 36 10 16 0 29 4 29 9 0 12 -51 7 -77 -8 -15 -7 -24 -8 -28 -1 -4 6
-11 8 -16 5 -5 -4 -9 -1 -9 5 0 8 11 9 31 5 20 -5 29 -3 25 3 -3 5 22 12 61
16 36 4 74 11 83 16 10 5 44 6 81 1 l64 -8 -75 -3 c-76 -2 -155 -16 -115 -20
20 -1 20 -1 0 -10 -21 -9 -17 -12 30 -16 158 -14 189 -16 183 -10 -3 4 -28 8
-55 8 -42 0 -45 1 -23 10 14 6 20 12 13 15 -7 2 -21 0 -32 -6 -11 -6 -30 -11
-43 -11 -19 0 -20 2 -8 11 11 8 8 9 -15 5 -26 -5 -27 -5 -11 5 14 8 24 9 36 1
10 -6 22 -7 31 -1 8 5 28 9 44 9 17 0 39 7 49 15 11 8 27 15 35 15 14 0 14 -2
1 -11 -12 -9 -11 -9 5 -4 11 5 38 13 60 19 27 8 41 18 43 31 3 19 3 19 -10 2
-7 -10 -25 -19 -39 -21 -13 -1 -30 -5 -36 -9 -7 -4 -15 -1 -20 7 -4 8 -24 16
-43 18 l-35 3 42 5 c23 3 39 2 37 -2 -3 -5 7 -7 23 -7 15 1 20 3 11 6 -13 3
-16 14 -13 51 2 26 4 76 5 112 1 36 4 60 6 53 3 -7 12 -9 20 -6 10 4 14 -2 14
-21 0 -18 5 -26 18 -25 10 0 12 3 5 6 -7 2 -13 9 -13 14 0 6 5 7 10 4 6 -3 10
-3 10 2 1 4 12 22 26 38 15 17 23 24 20 18 -5 -10 5 -12 45 -8 29 3 49 2 46
-2 -4 -3 0 -15 10 -25 12 -13 13 -18 3 -18 -7 0 -10 -3 -7 -7 4 -3 2 -12 -5
-20 -9 -11 -8 -18 5 -31 16 -15 17 -14 18 11 1 15 2 30 4 35 14 51 18 61 25
57 4 -2 2 -29 -5 -60 -7 -30 -9 -57 -5 -60 5 -3 13 18 19 46 6 28 15 59 21 68
5 11 6 39 1 69 -5 30 -4 55 1 60 6 6 1 16 -14 27 -23 17 -23 17 20 12 23 -3
42 -3 42 -1 0 2 -13 10 -30 19 -42 21 -106 19 -137 -5 -31 -24 -47 -25 -81 -4
-24 14 -27 21 -24 62 2 35 0 43 -7 32 -6 -8 -11 -26 -11 -40 l0 -25 -237 7
c-131 4 -248 10 -260 13 -19 4 -21 10 -16 35 3 20 1 30 -6 30 -8 0 -11 -12 -9
-32z m436 -77 c35 0 61 -5 58 -10 -7 -10 -207 -8 -223 2 -6 4 -13 2 -15 -4 -2
-7 -8 -6 -16 4 -12 14 -5 15 60 12 40 -1 101 -3 136 -4z m287 -11 c-3 -5 -13
-10 -21 -10 -8 0 -12 5 -9 10 3 6 13 10 21 10 8 0 12 -4 9 -10z m-185 -170
c-18 -6 -20 -8 -7 -9 10 -1 15 -6 12 -11 -5 -8 -11 -7 -21 1 -22 18 -17 29 14
28 l27 -1 -25 -8z m-425 -50 c8 -13 -5 -13 -25 0 -13 8 -13 10 2 10 9 0 20 -4
23 -10z m229 -200 c14 -5 26 -6 26 -2 0 4 17 6 38 3 36 -4 36 -4 9 -12 -15 -4
-59 -6 -97 -4 -39 2 -70 0 -70 -4 0 -4 -15 -7 -34 -6 -19 0 -32 -3 -29 -8 3
-5 0 -8 -7 -5 -38 12 -15 26 57 35 43 6 79 11 80 12 1 0 13 -3 27 -9z"/>
<path d="M750 1580 c0 -5 5 -10 11 -10 5 0 7 5 4 10 -3 6 -8 10 -11 10 -2 0
-4 -4 -4 -10z"/>
<path d="M1221 1573 c0 -4 4 -17 9 -28 8 -19 9 -19 9 2 1 12 -3 25 -9 28 -5 3
-10 3 -9 -2z"/>
<path d="M1452 1537 c-16 -31 -41 -144 -34 -152 4 -3 0 -10 -7 -14 -7 -5 -11
-15 -9 -22 7 -19 46 61 41 83 -2 9 3 40 11 69 17 57 16 72 -2 36z"/>
<path d="M2105 1539 c24 -7 20 -8 -21 -4 -27 2 -57 -1 -65 -6 -10 -7 -5 -8 16
-4 28 5 28 4 -5 -9 -41 -17 -62 -20 -40 -6 8 5 10 10 4 10 -5 0 -19 -7 -30
-15 -16 -13 -16 -14 -1 -9 9 3 17 1 17 -5 0 -6 -6 -11 -12 -11 -29 -1 -158
-144 -158 -175 0 -5 -7 -22 -14 -37 -8 -16 -11 -28 -7 -28 13 0 37 32 57 75
24 54 118 146 176 174 26 12 69 26 94 29 66 10 71 32 7 31 -44 -1 -45 -2 -18
-10z"/>
<path d="M1255 1530 c-3 -5 -1 -10 4 -10 6 0 11 5 11 10 0 6 -2 10 -4 10 -3 0
-8 -4 -11 -10z"/>
<path d="M1690 1525 c0 -12 24 -55 32 -55 11 0 10 4 -4 35 -9 21 -28 35 -28
20z"/>
<path d="M515 1510 c-3 -5 -1 -10 4 -10 6 0 11 5 11 10 0 6 -2 10 -4 10 -3 0
-8 -4 -11 -10z"/>
<path d="M2125 1495 c-24 -7 -61 -24 -82 -38 -75 -52 -162 -191 -183 -293 -7
-35 -15 -52 -20 -44 -5 8 -9 9 -14 1 -4 -6 -5 -15 -2 -20 4 -5 2 -21 -4 -35
-6 -16 -6 -27 0 -31 17 -10 11 -25 -9 -25 -15 0 -19 7 -19 30 1 17 5 30 11 30
6 0 5 5 -1 13 -6 6 -8 25 -5 40 4 21 10 27 23 24 14 -4 19 4 23 37 3 22 9 52
13 66 6 24 6 24 -9 5 -9 -11 -17 -28 -17 -37 0 -10 -5 -18 -11 -18 -5 0 -8 -4
-5 -9 8 -13 -19 -32 -37 -26 -12 5 -14 -5 -10 -72 3 -47 11 -84 19 -94 16 -18
19 -49 4 -49 -5 0 -10 -16 -10 -36 0 -21 4 -33 10 -29 6 3 10 -1 10 -10 0 -26
40 -76 59 -74 29 3 32 -1 21 -21 -9 -18 -6 -27 18 -55 17 -18 32 -32 35 -29 2
2 10 -2 17 -11 7 -8 20 -15 29 -15 9 0 38 -11 64 -24 l49 -23 -64 -6 c-68 -5
-119 -3 -155 8 -15 5 -23 3 -23 -4 0 -7 -3 -10 -8 -7 -4 2 -37 6 -72 7 -36 1
-81 6 -100 10 -19 4 -53 10 -75 13 -22 2 -60 12 -84 20 -24 9 -63 16 -86 16
-43 0 -83 27 -68 45 5 5 1 4 -8 -3 -13 -10 -19 -8 -33 7 -10 11 -16 23 -13 28
3 4 -54 7 -126 6 -73 -1 -132 -3 -132 -3 0 -1 -19 -2 -43 -4 -23 -1 -42 1 -42
6 0 4 17 9 38 9 20 1 60 3 88 4 28 1 55 4 60 6 5 3 32 4 59 3 69 -2 85 8 85
55 0 42 -18 65 -43 55 -13 -5 -16 1 -15 30 1 40 24 50 32 14 3 -13 3 5 0 40
-6 74 -12 94 -27 85 -6 -4 -8 0 -4 10 4 11 2 14 -9 10 -17 -6 -18 -20 -1 -26
7 -3 0 -9 -15 -16 -16 -6 -28 -13 -28 -17 0 -3 7 -4 15 0 8 3 15 0 16 -7 0 -7
4 -2 9 11 14 34 27 27 32 -17 3 -34 0 -40 -24 -50 -30 -14 -39 -37 -10 -27 9
4 4 -4 -13 -18 -21 -17 -32 -21 -37 -13 -4 7 -1 13 7 15 8 2 15 8 15 13 0 12
-17 12 -24 0 -3 -5 -16 -11 -28 -14 -13 -2 -32 -8 -42 -12 -13 -6 -17 -5 -12
3 4 7 -2 9 -21 6 -14 -3 -29 -6 -32 -8 -3 -2 -15 1 -26 5 -18 9 -18 9 3 5 12
-2 22 0 22 5 0 5 11 9 24 9 14 0 27 4 31 9 3 5 -8 9 -25 9 -17 -1 -33 -5 -36
-10 -9 -14 -24 -9 -18 7 8 20 -10 19 -27 -2 -12 -14 -12 -16 0 -9 9 6 12 5 9
-5 -3 -8 -11 -13 -17 -12 -6 2 -11 -2 -11 -8 0 -6 6 -9 14 -6 8 3 17 3 20 -1
10 -9 37 -13 84 -12 27 1 41 -3 38 -9 -4 -6 -13 -8 -20 -5 -8 3 -17 1 -21 -5
-4 -8 -12 -8 -25 -1 -13 7 -20 6 -22 -2 -5 -14 -218 -18 -218 -3 -1 13 -23
-25 -26 -43 -2 -8 3 -11 13 -8 8 3 27 7 41 7 20 1 17 4 -13 9 l-40 7 42 2 c23
0 49 4 59 8 12 4 15 3 10 -5 -4 -7 -2 -12 3 -12 6 0 11 -5 11 -11 0 -6 -6 -9
-13 -6 -8 3 -29 1 -48 -3 -23 -6 2 -8 81 -7 94 1 121 4 148 20 17 10 32 24 32
30 0 7 5 5 10 -3 6 -9 10 -10 10 -3 0 6 8 14 17 16 15 4 14 5 -2 6 -28 1 -30
36 -3 38 16 2 17 -1 8 -13 -18 -21 24 -19 45 3 16 16 18 16 27 -1 6 -10 16
-15 27 -11 15 4 20 -2 25 -36 4 -23 5 -43 3 -46 -11 -11 -597 -28 -597 -17 0
5 -25 7 -56 6 -33 -3 -61 1 -68 8 -8 8 -1 9 32 4 25 -4 42 -3 42 3 0 12 -31
16 -87 11 -26 -3 13 -37 49 -43 21 -4 36 -10 33 -14 -2 -5 -27 -4 -54 2 -39 7
-51 14 -54 31 -4 20 -4 20 -6 -1 0 -13 -6 -23 -12 -23 -6 0 -9 9 -6 20 7 26
-7 26 -33 0 -22 -22 -27 -76 -7 -83 6 -2 9 -8 5 -12 -4 -4 -15 -2 -23 5 -12
10 -18 11 -28 1 -9 -10 -8 -11 6 -6 10 4 17 2 17 -4 0 -6 -4 -11 -10 -11 -5 0
-10 -5 -10 -10 0 -6 11 -8 25 -4 14 3 25 2 25 -4 0 -5 15 -10 33 -10 17 0 52
-5 76 -10 24 -6 66 -9 92 -8 27 1 49 -2 49 -6 0 -4 8 -8 18 -8 14 0 15 2 2 10
-13 8 -12 10 3 10 9 0 17 -4 17 -9 0 -7 91 -15 152 -13 9 0 22 -6 29 -14 6 -8
19 -14 27 -14 13 0 12 3 -4 16 -18 14 -17 15 16 7 37 -8 270 -12 352 -5 27 2
46 8 43 12 -3 5 7 4 23 -2 22 -9 36 -7 65 7 25 11 46 15 65 10 15 -4 41 -8 59
-9 17 0 29 -4 27 -7 -2 -4 6 -7 19 -7 68 0 206 -16 196 -23 -7 -4 -19 -5 -28
-1 -9 3 -13 1 -8 -4 13 -14 68 -11 62 4 -3 7 4 12 18 12 18 0 19 -2 7 -10 -10
-6 -1 -8 28 -4 33 4 42 2 36 -7 -5 -8 -3 -9 7 -3 8 5 25 10 39 11 20 3 22 1
10 -7 -12 -7 -8 -10 15 -9 17 0 24 3 18 6 -7 2 -13 9 -13 14 0 6 7 6 19 0 16
-9 68 -12 191 -10 l35 0 -30 10 c-16 5 -60 7 -97 5 -38 -3 -68 0 -68 5 0 8 74
15 120 11 8 -1 49 -4 92 -7 42 -2 88 -9 102 -15 16 -6 26 -6 26 0 0 10 -100
42 -122 39 -7 -1 -31 0 -53 1 -38 2 -39 2 -12 10 15 5 53 5 85 1 31 -5 74 -7
95 -5 20 2 37 -1 37 -6 0 -6 3 -9 8 -9 4 1 9 1 12 -1 20 -7 50 -8 50 -1 0 22
-163 60 -175 41 -3 -5 -18 -10 -33 -10 -24 1 -23 3 16 22 77 37 184 160 197
226 2 11 10 39 18 63 34 103 28 249 -16 339 -29 61 -78 130 -93 130 -6 0 -17
6 -23 14 -37 44 -182 72 -266 51z m183 -35 c23 -10 45 -26 48 -35 3 -8 11 -12
18 -8 6 3 8 3 4 -2 -11 -11 12 -36 25 -28 5 3 7 1 4 -4 -4 -6 0 -14 9 -17 9
-4 14 -9 11 -12 -3 -3 8 -33 24 -67 16 -34 29 -72 29 -84 0 -13 3 -23 8 -23 4
0 7 -36 8 -80 0 -50 -3 -76 -8 -68 -6 8 -7 0 -3 -21 5 -22 4 -31 -3 -27 -6 4
-8 -2 -4 -16 3 -14 1 -19 -6 -14 -8 4 -10 2 -6 -8 8 -22 -33 -94 -88 -153
-129 -135 -308 -142 -425 -16 -24 25 -43 41 -43 36 0 -20 82 -92 133 -117 40
-21 66 -26 122 -26 95 0 174 38 245 118 27 30 52 53 55 50 3 -3 -19 -33 -50
-66 -80 -86 -145 -117 -250 -117 -95 0 -154 25 -215 91 -39 43 -71 92 -51 80
17 -11 14 -3 -29 72 -41 71 -50 107 -27 115 9 3 9 8 -2 21 -10 12 -11 20 -4
24 6 4 18 35 27 70 16 64 29 90 79 155 30 39 44 46 44 22 0 -8 -4 -12 -8 -9
-4 2 -10 0 -13 -5 -4 -5 2 -12 13 -16 11 -3 22 -12 25 -20 5 -13 36 -22 36
-11 0 17 -14 35 -23 29 -6 -3 -7 -1 -3 5 4 6 2 21 -4 32 -10 18 -8 20 27 20
53 0 83 -37 83 -101 0 -26 3 -50 8 -52 4 -3 6 23 5 56 -2 57 -5 64 -34 90 -33
27 -91 37 -103 18 -8 -12 -46 -21 -46 -10 0 5 18 18 40 29 23 12 45 32 50 45
9 24 30 35 30 16 0 -14 31 -18 64 -9 22 6 35 3 50 -10 11 -9 16 -11 12 -4 -11
19 8 14 34 -8 12 -11 27 -17 33 -13 5 3 7 2 4 -4 -3 -5 10 -25 30 -44 21 -19
31 -26 24 -17 -10 14 -9 16 8 11 13 -3 23 2 31 17 11 21 12 21 25 3 19 -24 19
-37 0 -29 -8 3 -20 -3 -28 -14 -8 -11 -16 -18 -19 -15 -2 3 -5 -2 -5 -10 0 -8
4 -15 8 -15 7 0 16 -29 25 -79 13 -64 22 -95 23 -73 1 13 5 21 10 18 4 -3 6
-17 3 -31 -3 -18 0 -25 12 -25 9 0 16 -4 16 -10 0 -5 -6 -10 -12 -10 -9 0 -8
-4 2 -10 8 -5 10 -10 3 -10 -6 0 -9 -9 -5 -22 4 -18 2 -20 -16 -16 -15 4 -22
2 -22 -7 0 -7 -3 -20 -6 -29 -4 -11 -1 -16 11 -16 10 0 15 5 12 13 -3 8 1 14
9 14 19 0 19 -1 -17 -67 -30 -56 -109 -145 -109 -123 0 6 6 13 13 16 9 3 9 8
-2 21 -18 21 -33 2 -25 -31 6 -24 -20 -42 -91 -62 -35 -9 -42 -9 -53 6 -11 15
-14 16 -22 3 -10 -16 -12 -15 -28 15 -11 19 -11 18 -12 -7 0 -23 5 -28 36 -34
142 -27 300 93 359 274 13 41 16 77 13 151 -3 85 -8 106 -36 164 -30 59 -109
147 -133 147 -5 0 -23 9 -41 20 -44 27 -10 27 50 0z m-98 -17 c0 -17 -21 -28
-29 -15 -7 12 -56 10 -68 -1 -12 -12 -33 -7 -33 7 0 19 10 21 76 22 36 0 54
-4 54 -13z m25 7 c-3 -5 3 -10 14 -10 23 0 26 -7 12 -29 -11 -16 -34 -5 -24
12 4 7 -2 5 -12 -3 -10 -8 -16 -10 -13 -5 2 6 8 18 11 28 4 9 9 17 12 17 4 0
3 -4 0 -10z m72 -41 c6 -6 9 -18 6 -25 -4 -10 0 -12 13 -7 11 4 15 3 11 -4 -4
-6 -2 -13 5 -15 7 -3 8 -7 2 -10 -14 -9 -78 47 -70 60 9 15 19 15 33 1z m-277
-8 c0 -5 -7 -11 -15 -15 -15 -5 -20 5 -8 17 9 10 23 9 23 -2z m-40 -21 c0 -5
-5 -10 -11 -10 -5 0 -7 5 -4 10 3 6 8 10 11 10 2 0 4 -4 4 -10z m413 -99 c2
-11 0 -24 -7 -31 -8 -8 -6 -9 7 -4 19 7 21 -14 2 -29 -6 -5 0 -7 13 -4 18 4
21 3 13 -7 -6 -7 -7 -17 -3 -21 4 -5 1 -5 -5 -1 -9 5 -13 0 -13 -16 0 -17 3
-19 9 -9 5 7 11 9 14 4 3 -5 2 -15 -3 -23 -14 -23 -32 2 -33 46 -1 22 -4 41
-7 44 -3 3 -11 17 -17 32 -9 21 -9 28 0 32 21 8 25 6 30 -13z m124 -123 c-3
-8 -6 -5 -6 6 -1 11 2 17 5 13 3 -3 4 -12 1 -19z m-80 -75 c-3 -3 -14 0 -24 6
-10 6 -13 11 -7 11 7 0 15 10 19 23 7 21 8 21 12 -6 3 -16 2 -31 0 -34z m83 0
c0 -36 -4 -52 -9 -43 -8 14 -3 100 5 100 2 0 4 -26 4 -57z m-10 -82 c0 -6 -4
-12 -8 -15 -5 -3 -9 1 -9 9 0 8 4 15 9 15 4 0 8 -4 8 -9z m-679 -98 c9 -27 19
-56 23 -65 5 -11 4 -18 -3 -18 -13 0 -51 82 -51 111 0 34 16 20 31 -28z m-747
-53 c-5 -5 -27 -12 -49 -16 -22 -3 -44 -10 -49 -15 -14 -13 -29 -11 -20 2 5 8
1 8 -14 0 -26 -14 -45 -14 -37 -1 3 6 1 10 -6 10 -7 0 -9 3 -6 6 4 4 30 8 59
9 64 3 106 10 115 19 3 3 9 4 12 1 2 -3 0 -10 -5 -15z m-51 -37 c-7 -2 -19 -2
-25 0 -7 3 -2 5 12 5 14 0 19 -2 13 -5z m1247 -7 c0 -3 -4 -8 -10 -11 -5 -3
-10 -1 -10 4 0 6 5 11 10 11 6 0 10 -2 10 -4z m-1354 -68 l361 2 11 -25 c7
-14 12 -30 12 -34 0 -5 -69 -8 -154 -7 -118 1 -152 -2 -145 -11 8 -9 69 -10
237 -6 214 5 226 4 204 -12 -14 -10 -33 -14 -50 -11 -36 7 -122 8 -395 3 -126
-3 -226 -2 -222 1 8 8 30 11 112 13 39 1 77 5 85 10 11 7 -122 11 -252 8 -156
-3 -188 -1 -230 18 -38 17 -46 25 -48 51 l-2 30 57 -16 c50 -15 107 -17 419
-14z m-26 23 c0 -11 -225 -12 -253 -2 -10 4 42 8 117 9 75 1 136 -2 136 -7z
m40 5 c0 -2 -7 -6 -15 -10 -8 -3 -15 -1 -15 4 0 6 7 10 15 10 8 0 15 -2 15 -4z
m994 -33 c45 -40 59 -61 30 -44 -25 13 -84 67 -84 75 0 13 14 5 54 -31z m-727
-109 c-3 -3 -12 -4 -19 -1 -8 3 -5 6 6 6 11 1 17 -2 13 -5z m70 0 c-3 -3 -12
-4 -19 -1 -8 3 -5 6 6 6 11 1 17 -2 13 -5z m-124 -11 c-7 -2 -21 -2 -30 0 -10
3 -4 5 12 5 17 0 24 -2 18 -5z"/>
<path d="M2027 1299 c3 -10 11 -19 19 -19 16 0 8 26 -11 33 -9 4 -11 -1 -8
-14z"/>
<path d="M2070 1280 c0 -11 7 -20 15 -20 13 0 14 4 5 20 -6 11 -13 20 -15 20
-3 0 -5 -9 -5 -20z"/>
<path d="M1940 1260 c0 -5 5 -10 11 -10 5 0 8 -4 4 -9 -3 -5 -1 -12 4 -15 5
-3 11 1 15 9 3 9 -3 19 -14 25 -14 7 -20 7 -20 0z"/>
<path d="M2150 1241 c0 -25 6 -27 13 -6 4 8 2 17 -3 20 -6 4 -10 -3 -10 -14z"/>
<path d="M2191 1236 c7 -15 15 -23 17 -16 3 7 -3 19 -13 28 -15 16 -16 15 -4
-12z"/>
<path d="M2057 1224 c-3 -3 -38 -11 -78 -18 -54 -9 -73 -16 -75 -29 -2 -19 9
-21 34 -8 9 4 29 11 44 15 23 5 26 3 21 -11 -4 -11 -3 -14 5 -9 7 4 12 14 12
22 0 22 20 17 30 -8 8 -22 9 -22 9 5 1 16 6 27 14 26 23 -3 40 1 33 8 -9 9
-42 14 -49 7z"/>
<path d="M2166 1214 c-8 -22 -8 -64 2 -64 4 0 7 18 7 40 1 44 0 47 -9 24z"/>
<path d="M2076 1161 c-4 -5 1 -8 9 -7 21 3 31 16 12 16 -9 0 -18 -4 -21 -9z"/>
<path d="M2131 1128 c-1 -16 4 -28 9 -28 12 0 12 8 0 35 -8 18 -9 17 -9 -7z"/>
<path d="M1995 1130 c-3 -5 1 -10 9 -10 9 0 16 5 16 10 0 6 -4 10 -9 10 -6 0
-13 -4 -16 -10z"/>
<path d="M2063 1122 c3 -13 2 -36 -3 -52 -7 -26 -6 -30 11 -30 11 0 22 7 26
15 8 22 -6 33 -18 15 -7 -11 -8 -8 -3 12 3 15 1 35 -6 45 -10 16 -11 16 -7 -5z"/>
<path d="M1908 1114 c-3 -12 -2 -27 2 -34 11 -18 18 1 10 30 -6 24 -6 24 -12
4z"/>
<path d="M2292 1110 c0 -14 2 -19 5 -12 2 6 2 18 0 25 -3 6 -5 1 -5 -13z"/>
<path d="M2009 1088 c-1 -7 -1 -17 0 -22 3 -15 -23 -26 -31 -13 -5 8 -8 7 -8
-5 0 -9 8 -19 18 -21 14 -4 13 -6 -6 -12 -14 -5 -22 -14 -20 -24 3 -10 -7 -20
-27 -28 -19 -7 -23 -12 -12 -12 10 -1 15 -6 12 -11 -4 -6 -11 -8 -16 -5 -5 4
-9 1 -9 -4 0 -6 4 -11 9 -11 13 0 61 40 61 51 0 5 9 19 19 30 20 22 33 87 19
95 -4 3 -9 -1 -9 -8z"/>
<path d="M2123 1065 c-7 -14 -19 -36 -25 -50 -7 -13 -23 -29 -35 -34 -13 -6
-23 -15 -23 -21 0 -5 -9 -10 -21 -10 -19 0 -19 -1 -4 -17 16 -16 18 -16 27 0
5 9 15 17 22 17 8 0 21 10 29 23 11 15 16 17 16 7 0 -8 -8 -26 -18 -39 -19
-24 -60 -32 -93 -17 -11 5 -18 4 -18 -3 0 -6 7 -11 16 -11 8 0 12 -5 9 -10 -3
-6 -17 -7 -31 -4 -14 4 -24 2 -24 -5 0 -16 64 -14 103 3 35 15 97 69 97 85 0
5 -4 13 -10 16 -5 3 -7 0 -4 -8 3 -8 1 -18 -5 -22 -14 -8 -14 28 0 42 6 6 9
27 7 47 -3 35 -3 36 -15 11z"/>
<path d="M2220 1075 c0 -8 4 -15 10 -15 5 0 7 7 4 15 -4 8 -8 15 -10 15 -2 0
-4 -7 -4 -15z"/>
<path d="M2369 1065 c-1 -15 -4 -28 -9 -42 -1 -5 -2 -12 -1 -17 1 -4 -4 -14
-10 -22 -6 -8 -8 -14 -3 -14 5 0 4 -4 -1 -8 -6 -4 -21 -23 -34 -42 -31 -46
-91 -101 -102 -94 -5 3 -9 1 -9 -4 0 -12 -59 -34 -71 -26 -5 3 -9 1 -9 -4 0
-12 -78 1 -110 17 -28 15 -91 80 -87 90 2 3 -7 16 -21 29 l-24 23 8 -23 c3
-13 10 -32 14 -43 12 -32 84 -91 126 -105 22 -6 46 -14 54 -17 8 -4 21 -5 29
-4 8 1 18 -3 23 -11 7 -10 8 -9 4 5 -4 12 0 17 15 17 26 0 85 32 126 67 38 34
83 100 83 122 0 9 8 28 17 41 23 33 27 66 8 74 -9 3 -15 0 -16 -9z"/>
<path d="M2251 1055 c-3 -37 -41 -107 -79 -143 l-37 -36 35 26 c40 29 94 126
87 154 -4 18 -5 17 -6 -1z"/>
<path d="M1900 1037 c0 -9 5 -19 10 -22 6 -4 8 -10 5 -15 -3 -4 2 -10 10 -14
17 -6 21 9 5 19 -6 4 -8 10 -5 15 3 4 -2 13 -10 20 -12 10 -15 10 -15 -3z"/>
<path d="M2166 1035 c-19 -15 -19 -15 2 -15 13 0 22 6 22 15 0 18 0 18 -24 0z"/>
<path d="M2202 1018 c-12 -34 -72 -104 -107 -125 -11 -6 -15 -12 -8 -12 13 -1
103 74 105 86 0 4 9 18 19 31 10 13 15 30 12 38 -7 19 -7 19 -21 -18z"/>
<path d="M2281 1043 c-1 -6 -4 -20 -7 -30 -5 -17 -5 -17 6 0 6 10 9 23 6 30
-3 9 -5 9 -5 0z"/>
<path d="M2043 1018 c-6 -7 -13 -21 -16 -31 -6 -16 -4 -16 23 3 17 12 30 26
30 31 0 13 -26 11 -37 -3z"/>
<path d="M2243 957 c-4 -6 -1 -7 7 -2 8 5 11 3 8 -6 -3 -8 -10 -13 -15 -12
-14 3 -56 -43 -59 -63 -2 -14 0 -13 16 1 11 10 18 22 17 28 -1 6 3 11 8 12 16
1 34 15 44 34 8 13 6 18 -5 18 -8 0 -18 -5 -21 -10z"/>
<path d="M2331 871 c-7 -5 -9 -11 -5 -14 5 -3 15 1 22 9 14 16 5 18 -17 5z"/>
<path d="M2010 861 l-25 -7 30 -8 c16 -4 33 -13 38 -19 5 -7 7 -2 5 12 -3 28
-13 32 -48 22z"/>
<path d="M2135 861 c-3 -5 -18 -12 -34 -16 -18 -4 -31 -14 -34 -28 -5 -19 -4
-20 6 -6 7 9 24 19 38 22 15 4 29 14 33 22 6 16 1 20 -9 6z"/>
<path d="M2211 773 c-8 -15 -6 -19 10 -20 25 -2 32 12 15 27 -12 9 -17 7 -25
-7z"/>
<path d="M556 705 c-3 -8 -1 -15 4 -15 6 0 10 7 10 15 0 8 -2 15 -4 15 -2 0
-6 -7 -10 -15z"/>
<path d="M508 1483 c6 -2 9 -10 6 -15 -4 -7 -2 -8 5 -4 13 9 5 26 -12 25 -9 0
-8 -2 1 -6z"/>
<path d="M660 1471 c-10 -19 -4 -51 9 -51 3 0 19 7 35 15 25 13 27 13 22 -1
-3 -8 -2 -12 4 -9 26 16 -5 65 -40 65 -11 0 -24 -9 -30 -19z m50 -5 c0 -24
-18 -28 -30 -6 -9 17 -8 20 10 20 11 0 20 -6 20 -14z"/>
<path d="M2390 1471 c0 -5 7 -11 15 -15 9 -3 15 0 15 9 0 8 -7 15 -15 15 -8 0
-15 -4 -15 -9z"/>
<path d="M1879 1443 c-13 -16 -12 -17 4 -4 9 7 17 15 17 17 0 8 -8 3 -21 -13z"/>
<path d="M2461 1433 c13 -16 25 -30 27 -32 1 -2 2 3 2 12 0 18 -26 47 -42 47
-7 0 -1 -12 13 -27z"/>
<path d="M1143 1423 c-18 -7 -16 -20 2 -20 8 0 15 6 15 14 0 7 -1 13 -2 12 -2
0 -9 -3 -15 -6z"/>
<path d="M1918 1388 c-36 -46 -68 -94 -68 -103 0 -3 6 -5 13 -4 13 0 111 149
98 149 -5 0 -24 -19 -43 -42z"/>
<path d="M690 1410 c-20 -12 -10 -19 14 -10 11 3 15 9 10 13 -6 3 -16 2 -24
-3z"/>
<path d="M1180 1410 c8 -5 26 -10 39 -10 32 0 24 6 -19 14 -25 4 -31 3 -20 -4z"/>
<path d="M1083 1393 c9 -2 23 -2 30 0 6 3 -1 5 -18 5 -16 0 -22 -2 -12 -5z"/>
<path d="M1181 1381 c-44 -12 -32 -26 24 -27 30 0 55 3 55 8 0 4 -3 7 -7 7 -5
-1 -17 0 -28 1 -17 2 -17 3 5 10 l25 8 -25 0 c-14 0 -36 -3 -49 -7z"/>
<path d="M1570 1370 c0 -17 27 -65 44 -79 22 -18 20 -11 -10 43 -26 46 -34 55
-34 36z"/>
<path d="M610 1350 c8 -5 22 -9 30 -9 10 0 8 3 -5 9 -27 12 -43 12 -25 0z"/>
<path d="M606 1288 c2 -4 35 -6 73 -6 38 0 73 -2 79 -6 7 -4 40 -9 75 -12 50
-4 66 -2 76 10 8 9 23 16 34 16 11 0 18 3 14 6 -9 10 -68 -7 -61 -17 5 -9 -39
-6 -96 7 -37 8 -199 10 -194 2z"/>
<path d="M858 1293 c7 -3 16 -2 19 1 4 3 -2 6 -13 5 -11 0 -14 -3 -6 -6z"/>
<path d="M503 1255 c0 -22 2 -30 4 -17 2 12 2 30 0 40 -3 9 -5 -1 -4 -23z"/>
<path d="M920 1268 c0 -11 67 -10 74 1 3 5 -12 8 -34 8 -22 -1 -40 -5 -40 -9z"/>
<path d="M1176 1263 c-6 -14 -5 -15 5 -6 7 7 10 15 7 18 -3 3 -9 -2 -12 -12z"/>
<path d="M1107 1229 c4 -13 8 -18 11 -10 2 7 -1 18 -6 23 -8 8 -9 4 -5 -13z"/>
<path d="M603 1226 c0 -11 20 -14 91 -14 83 -1 89 1 66 13 -30 17 -44 19 -35
5 8 -14 -98 -13 -111 0 -7 7 -11 6 -11 -4z"/>
<path d="M1776 1213 c-6 -14 -5 -15 5 -6 7 7 10 15 7 18 -3 3 -9 -2 -12 -12z"/>
<path d="M802 1199 c-13 -5 -29 -6 -34 -2 -7 3 -8 1 -4 -5 4 -7 1 -12 -9 -12
-9 0 -14 4 -10 9 3 6 -10 9 -30 8 -19 -1 -35 -6 -35 -11 0 -5 -8 -2 -17 5 -9
8 -14 9 -10 2 4 -6 1 -13 -5 -16 -7 -2 27 -3 77 -1 49 2 91 7 93 13 2 5 13 4
26 -2 21 -10 22 -13 8 -27 -9 -8 -19 -16 -24 -16 -4 -1 -9 -2 -10 -4 -5 -3
-42 -10 -70 -13 -16 -1 -28 -7 -28 -13 0 -15 123 10 128 25 2 6 10 11 17 11 7
0 26 7 41 15 l29 15 -28 0 c-15 0 -40 6 -55 14 -18 9 -35 11 -50 5z"/>
<path d="M1060 1200 c-11 -7 -6 -10 20 -10 26 0 31 3 20 10 -8 5 -17 10 -20
10 -3 0 -12 -5 -20 -10z"/>
<path d="M595 1192 c6 -4 10 -18 10 -32 0 -23 4 -25 45 -25 25 0 48 -4 52 -10
5 -6 8 -5 8 2 0 7 10 12 23 12 25 -1 96 16 104 25 10 9 -51 3 -63 -6 -7 -5
-23 -3 -39 4 -22 10 -28 9 -36 -3 -5 -8 -9 -9 -9 -4 0 6 -5 3 -10 -5 -9 -13
-10 -13 -10 0 0 13 -1 13 -10 0 -6 -10 -10 -11 -10 -2 0 6 -5 12 -11 12 -5 0
-7 -4 -4 -10 3 -5 0 -10 -8 -10 -18 0 -17 31 1 45 10 8 6 11 -15 13 -15 1 -23
-2 -18 -6z"/>
<path d="M496 1139 c-3 -17 -5 -66 -4 -108 1 -74 1 -74 8 29 8 111 7 130 -4
79z"/>
<path d="M1665 1130 c-3 -5 1 -10 9 -10 9 0 16 5 16 10 0 6 -4 10 -9 10 -6 0
-13 -4 -16 -10z"/>
<path d="M1137 1124 c-6 -10 9 -42 16 -34 3 3 1 14 -3 24 -3 11 -9 15 -13 10z"/>
<path d="M1170 1116 c0 -9 5 -16 10 -16 6 0 10 4 10 9 0 6 -4 13 -10 16 -5 3
-10 -1 -10 -9z"/>
<path d="M1706 1103 c-4 -9 -3 -20 2 -25 6 -6 10 1 10 16 0 30 -3 32 -12 9z"/>
<path d="M1445 1050 c4 -36 8 -77 9 -92 1 -14 5 -24 10 -21 4 3 5 -4 1 -16 -5
-16 -3 -20 10 -15 10 4 14 13 10 23 -4 9 -13 52 -21 95 -17 97 -30 114 -19 26z"/>
<path d="M1647 1103 c-12 -12 -7 -23 11 -23 14 0 14 2 3 9 -11 7 -10 10 5 14
14 3 15 5 3 6 -9 0 -19 -2 -22 -6z"/>
<path d="M1360 1074 c0 -8 5 -12 10 -9 6 4 8 11 5 16 -9 14 -15 11 -15 -7z"/>
<path d="M1162 1066 c7 -8 15 -10 16 -5 2 5 9 6 15 2 7 -3 9 -2 4 2 -4 5 -17
10 -28 12 -16 2 -18 1 -7 -11z"/>
<path d="M1342 1045 c0 -16 2 -22 5 -12 2 9 2 23 0 30 -3 6 -5 -1 -5 -18z"/>
<path d="M1542 1037 c-25 -27 -30 -46 -6 -27 15 13 38 50 31 50 -2 0 -13 -10
-25 -23z"/>
<path d="M1110 1041 c0 -4 11 -6 25 -3 14 2 25 6 25 8 0 2 -11 4 -25 4 -14 0
-25 -4 -25 -9z"/>
<path d="M1658 1043 c7 -3 16 -2 19 1 4 3 -2 6 -13 5 -11 0 -14 -3 -6 -6z"/>
<path d="M1085 1020 c14 -6 16 -9 5 -10 -8 -2 -18 -2 -22 -1 -5 0 -8 -4 -8
-10 0 -7 8 -9 23 -4 12 4 38 10 57 15 36 8 34 9 -35 15 -28 2 -34 1 -20 -5z"/>
<path d="M1550 1005 c-13 -14 -21 -27 -18 -30 2 -3 17 9 33 25 16 17 24 30 19
30 -6 0 -21 -11 -34 -25z"/>
<path d="M988 1002 c-10 -2 -18 -7 -18 -11 0 -5 -12 -6 -26 -3 -19 3 -25 1
-20 -7 9 -14 56 -15 56 0 0 6 7 3 16 -5 16 -17 114 -21 114 -5 0 5 11 9 24 9
14 0 28 5 31 10 6 10 -29 6 -65 -7 -8 -4 -25 -8 -37 -10 -17 -3 -20 1 -17 19
l5 23 -12 -22 c-13 -25 -24 -29 -35 -11 -4 6 -3 8 3 5 6 -4 13 -1 16 6 5 14
-4 16 -35 9z"/>
<path d="M1181 982 c0 -11 3 -12 6 -4 2 6 9 12 14 12 6 0 7 -6 3 -12 -5 -8 -1
-8 12 2 10 8 20 15 22 16 1 0 -11 1 -28 2 -22 0 -30 -4 -29 -16z"/>
<path d="M1370 976 c0 -14 4 -27 8 -30 5 -3 6 8 4 25 -5 35 -12 38 -12 5z"/>
<path d="M1570 980 c-6 -11 -8 -20 -6 -20 3 0 10 9 16 20 6 11 8 20 6 20 -3 0
-10 -9 -16 -20z"/>
<path d="M1612 975 c0 -16 2 -22 5 -12 2 9 2 23 0 30 -3 6 -5 -1 -5 -18z"/>
<path d="M1353 940 c0 -25 2 -35 4 -22 2 12 2 32 0 45 -2 12 -4 2 -4 -23z"/>
<path d="M1130 959 c0 -5 5 -7 10 -4 6 3 10 1 10 -4 0 -6 -10 -10 -21 -8 -12
1 -24 -4 -26 -11 -3 -8 2 -10 14 -6 38 12 62 27 57 36 -7 12 -44 10 -44 -3z"/>
<path d="M674 951 c4 -5 0 -12 -6 -15 -7 -3 20 -5 60 -3 39 1 72 -1 72 -5 0
-7 -54 -13 -105 -11 -44 1 -75 8 -75 15 0 4 -9 8 -20 8 -11 0 -20 -4 -20 -8 0
-12 68 -34 81 -26 8 4 9 3 5 -4 -4 -7 1 -9 16 -6 26 6 139 23 151 24 5 0 5 5
2 10 -4 6 -11 8 -16 5 -5 -4 -9 -1 -9 5 0 8 -19 9 -60 4 -42 -5 -60 -3 -60 5
0 6 -5 11 -11 11 -5 0 -8 -4 -5 -9z"/>
<path d="M1566 934 c-15 -14 -26 -27 -24 -29 4 -4 58 42 58 50 0 8 -4 6 -34
-21z"/>
<path d="M492 930 c0 -14 2 -19 5 -12 2 6 2 18 0 25 -3 6 -5 1 -5 -13z"/>
<path d="M857 933 c-5 -9 88 -11 96 -3 3 3 -16 6 -43 8 -27 1 -51 -1 -53 -5z"/>
<path d="M1380 901 c0 -11 4 -22 9 -25 4 -3 6 6 3 19 -5 30 -12 33 -12 6z"/>
<path d="M1731 910 c0 -8 4 -24 9 -35 5 -13 9 -14 9 -5 0 8 -4 24 -9 35 -5 13
-9 14 -9 5z"/>
<path d="M576 895 c-6 -16 19 -39 33 -31 5 4 16 -1 24 -9 9 -8 31 -15 51 -15
19 0 37 -3 39 -7 3 -5 -16 -6 -41 -4 -26 2 -43 -1 -39 -5 14 -15 127 -12 127
2 0 8 -6 11 -16 7 -9 -3 -19 -1 -23 5 -4 6 -23 12 -44 14 -20 1 -37 6 -37 11
0 5 10 7 21 4 17 -5 19 -3 10 6 -7 7 -33 11 -59 11 -29 -1 -40 1 -28 5 17 6
17 8 4 14 -9 3 -19 0 -22 -8z"/>
<path d="M792 903 c-6 -2 -10 -9 -7 -13 3 -5 12 -7 20 -3 8 3 15 0 15 -6 0 -6
5 -11 10 -11 6 0 5 8 -2 20 -13 21 -15 22 -36 13z"/>
<path d="M855 900 c-11 -5 -14 -9 -7 -9 7 -1 10 -6 7 -11 -5 -7 22 -10 81 -9
58 1 82 5 70 11 -8 5 -22 8 -28 7 -7 -1 -26 3 -41 9 -33 14 -54 14 -82 2z m65
-8 c0 -4 -11 -8 -25 -8 -14 0 -25 4 -25 8 0 4 11 8 25 8 14 0 25 -4 25 -8z"/>
<path d="M1630 895 c0 -5 5 -17 10 -25 5 -8 10 -10 10 -5 0 6 -5 17 -10 25 -5
8 -10 11 -10 5z"/>
<path d="M482 858 c-2 -27 2 -38 12 -38 8 0 18 4 21 10 3 5 0 7 -9 4 -11 -4
-16 3 -19 28 l-4 33 -1 -37z"/>
<path d="M701 886 c12 -10 60 -16 54 -6 -3 5 -18 10 -32 10 -15 0 -24 -2 -22
-4z"/>
<path d="M1599 873 c-13 -16 -12 -17 4 -4 9 7 17 15 17 17 0 8 -8 3 -21 -13z"/>
<path d="M1180 870 c-18 -12 -2 -12 25 0 13 6 15 9 5 9 -8 0 -22 -4 -30 -9z"/>
<path d="M324 860 c-25 -10 -40 -29 -21 -26 15 2 65 36 52 35 -6 0 -20 -4 -31
-9z"/>
<path d="M733 858 c22 -6 42 -7 47 -2 5 5 -12 10 -38 10 l-47 2 38 -10z"/>
<path d="M1229 860 c-1 -5 -2 -16 -3 -22 -1 -8 -13 -12 -34 -10 -17 1 -32 -2
-32 -7 0 -16 93 -8 97 9 4 13 3 13 -6 0 -9 -13 -11 -13 -11 1 0 8 5 20 12 27
9 9 8 12 -5 12 -9 0 -18 -4 -18 -10z"/>
<path d="M570 848 c0 -8 7 -15 15 -15 18 0 15 19 -3 25 -7 2 -12 -3 -12 -10z"/>
<path d="M1160 843 c-19 -9 -40 -17 -47 -18 -6 -2 -19 -8 -30 -14 -17 -10 -17
-10 2 -11 11 0 34 9 51 19 18 11 42 21 55 23 13 2 19 6 14 10 -6 3 -26 -1 -45
-9z"/>
<path d="M610 840 c0 -5 5 -10 10 -10 6 0 10 5 10 10 0 6 -4 10 -10 10 -5 0
-10 -4 -10 -10z"/>
<path d="M1760 831 c5 -11 15 -23 21 -27 6 -3 3 5 -6 20 -20 30 -30 35 -15 7z"/>
<path d="M1660 821 c0 -6 4 -13 10 -16 6 -3 7 1 4 9 -7 18 -14 21 -14 7z"/>
<path d="M228 813 c6 -2 18 -2 25 0 6 3 1 5 -13 5 -14 0 -19 -2 -12 -5z"/>
<path d="M1790 783 c0 -14 108 -113 123 -113 7 0 -1 10 -18 22 -16 13 -47 40
-67 63 -21 22 -38 35 -38 28z"/>
<path d="M380 759 c-14 -4 -19 -7 -12 -8 7 -1 10 -5 7 -11 -10 -15 5 -12 22 5
19 20 15 24 -17 14z"/>
<path d="M229 735 c-13 -8 -35 -20 -49 -27 -38 -19 -133 -80 -147 -94 -10 -9
-9 -15 2 -24 11 -9 12 -17 4 -31 -7 -13 -6 -19 1 -19 6 0 8 -6 4 -12 -6 -10
-4 -10 8 0 13 10 17 10 22 -3 3 -9 2 -13 -4 -10 -6 3 -10 2 -10 -2 0 -5 -9 -9
-20 -9 -13 0 -19 5 -15 14 3 8 0 10 -7 6 -8 -5 -9 -1 -4 12 5 14 4 16 -4 8 -7
-7 -8 -19 -1 -37 11 -27 34 -36 46 -16 4 5 12 8 18 6 7 -2 18 3 25 12 8 10 15
12 18 6 5 -13 148 -9 152 4 2 5 21 7 42 4 40 -6 100 12 100 28 0 14 -26 11
-39 -5 -6 -7 -22 -11 -36 -8 -22 4 -18 8 34 33 32 16 61 36 65 44 7 19 -1 19
-20 0 -9 -8 -24 -15 -34 -15 -11 0 -23 -7 -28 -16 -5 -9 -24 -17 -42 -19 -17
-1 -36 -8 -41 -16 -5 -8 -9 -10 -9 -6 0 4 -9 3 -19 -3 -14 -7 -21 -6 -24 3 -4
9 -6 9 -6 -1 -1 -10 -4 -10 -15 0 -17 17 1 48 29 49 11 1 2 5 -20 9 -29 6 -46
3 -63 -8 -24 -15 -39 -11 -27 8 4 6 13 9 20 6 7 -2 16 2 19 10 9 24 7 27 -9
14 -8 -6 -20 -8 -27 -4 -7 4 -10 4 -6 -1 4 -4 -3 -16 -15 -27 -12 -11 -16 -16
-8 -12 9 4 12 3 8 -4 -9 -13 -47 -4 -47 12 0 13 96 76 117 76 8 0 23 5 35 11
11 6 37 12 57 14 36 2 81 23 81 37 0 4 -15 7 -33 6 -19 -1 -38 2 -43 5 -6 3
-21 -1 -35 -8z m11 -9 c0 -3 -4 -8 -10 -11 -5 -3 -10 -1 -10 4 0 6 5 11 10 11
6 0 10 -2 10 -4z m-50 -146 c0 -5 -5 -10 -11 -10 -6 0 -8 -8 -4 -19 3 -11 1
-22 -5 -26 -5 -3 -10 -2 -10 3 0 5 -16 7 -36 5 -20 -2 -42 1 -48 7 -7 5 -16 7
-19 3 -4 -3 -7 -1 -7 5 0 7 11 9 30 5 27 -5 29 -3 23 13 -6 17 -5 17 10 5 10
-8 17 -9 17 -3 0 10 19 18 48 21 6 0 12 -3 12 -9z"/>
<path d="M1372 725 c6 -14 15 -25 20 -25 11 0 10 7 -2 31 -16 28 -32 23 -18
-6z"/>
<path d="M1750 728 c0 -6 3 -9 6 -5 3 3 18 -8 31 -24 23 -26 71 -59 88 -59 4
0 -15 16 -42 37 -26 20 -52 42 -56 50 -10 16 -27 17 -27 1z"/>
<path d="M360 711 c0 -6 4 -12 8 -15 5 -3 9 1 9 9 0 8 -4 15 -9 15 -4 0 -8 -4
-8 -9z"/>
<path d="M244 661 c3 -4 1 -13 -5 -21 -6 -10 -9 -11 -9 -2 0 6 -4 12 -10 12
-5 0 -7 -7 -4 -15 4 -8 15 -15 26 -15 10 0 17 4 13 9 -3 5 -1 12 5 16 5 3 10
2 10 -3 0 -5 11 -9 24 -9 15 0 23 4 20 12 -5 13 31 13 85 0 22 -6 22 -5 7 10
-20 20 -83 18 -108 -3 -10 -8 -18 -10 -18 -5 0 6 -9 13 -20 16 -11 3 -18 2
-16 -2z"/>
<path d="M2465 660 c3 -5 16 -10 28 -10 18 0 19 2 7 10 -20 13 -43 13 -35 0z"/>
<path d="M174 629 c-4 -8 -3 -9 4 -5 7 4 12 2 12 -3 0 -6 5 -11 11 -11 13 0 7
22 -8 27 -6 2 -15 -1 -19 -8z"/>
<path d="M471 630 c-13 -8 -21 -40 -11 -40 6 0 10 7 10 14 0 11 14 16 48 18
l47 3 -43 5 c-24 3 -46 3 -51 0z"/>
<path d="M2380 622 c1 -19 52 -40 109 -46 35 -4 73 -12 85 -18 l21 -10 -20 20
c-11 11 -44 24 -75 30 -30 5 -70 15 -87 20 -18 6 -33 8 -33 4z"/>
<path d="M285 610 c3 -5 8 -10 11 -10 2 0 4 5 4 10 0 6 -5 10 -11 10 -5 0 -7
-4 -4 -10z"/>
<path d="M1480 612 c0 -5 14 -9 30 -9 20 0 26 3 18 9 -17 10 -48 10 -48 0z"/>
<path d="M595 602 c4 -7 0 -19 -10 -26 -14 -10 -12 -12 19 -14 27 -2 36 1 36
13 0 9 -5 13 -11 10 -6 -4 -17 1 -25 11 -9 11 -12 13 -9 6z"/>
<path d="M694 594 c9 -8 20 -12 26 -9 15 9 2 25 -21 25 -19 0 -19 -1 -5 -16z"/>
<path d="M278 588 c5 -5 16 -8 23 -6 8 3 3 7 -10 11 -17 4 -21 3 -13 -5z"/>
<path d="M743 585 c0 -8 4 -15 9 -15 4 0 8 5 8 10 0 6 4 10 10 10 5 0 7 -7 4
-15 -4 -8 -2 -15 4 -15 17 0 22 28 6 34 -26 10 -41 7 -41 -9z"/>
<path d="M810 590 c0 -5 5 -10 11 -10 5 0 7 5 4 10 -3 6 -8 10 -11 10 -2 0 -4
-4 -4 -10z"/>
<path d="M849 587 c6 -8 9 -16 6 -18 -2 -3 5 -5 16 -5 10 0 17 5 15 11 -2 5
-9 9 -15 8 -6 -2 -11 2 -11 7 0 6 -5 10 -11 10 -8 0 -9 -4 0 -13z"/>
<path d="M1505 590 c3 -5 14 -10 23 -10 15 0 15 2 2 10 -20 13 -33 13 -25 0z"/>
<path d="M1586 585 c-11 -8 -29 -15 -40 -16 -21 0 -21 -1 -1 -9 27 -12 47 -12
40 -1 -3 5 5 17 17 25 12 9 18 16 13 16 -6 0 -19 -7 -29 -15z"/>
<path d="M1636 588 c3 -4 -2 -8 -10 -8 -9 0 -16 -8 -16 -17 0 -11 3 -14 8 -7
4 6 21 18 37 27 l30 16 -27 -1 c-15 -1 -24 -6 -22 -10z"/>
<path d="M2260 590 c0 -5 5 -10 10 -10 6 0 10 5 10 10 0 6 -4 10 -10 10 -5 0
-10 -4 -10 -10z"/>
<path d="M430 580 c0 -5 0 -13 0 -17 0 -4 11 -8 25 -10 14 -2 25 0 25 4 0 5
19 7 43 5 34 -2 39 -1 24 8 -10 7 -24 9 -32 6 -8 -3 -16 0 -18 7 -4 9 -7 9
-17 0 -9 -8 -19 -9 -32 -2 -12 6 -18 6 -18 -1z"/>
<path d="M665 580 c4 -6 11 -8 16 -5 14 9 11 15 -7 15 -8 0 -12 -5 -9 -10z"/>
<path d="M1350 580 c0 -5 5 -10 10 -10 6 0 10 5 10 10 0 6 -4 10 -10 10 -5 0
-10 -4 -10 -10z"/>
<path d="M2334 579 c-3 -6 1 -17 10 -25 9 -8 11 -9 6 -2 -17 20 -11 29 11 18
11 -7 23 -10 25 -7 2 2 -7 9 -21 15 -17 8 -26 8 -31 1z"/>
<path d="M225 570 c-3 -6 1 -7 9 -4 18 7 21 14 7 14 -6 0 -13 -4 -16 -10z"/>
<path d="M905 570 c-3 -5 1 -10 9 -10 9 0 16 5 16 10 0 6 -4 10 -9 10 -6 0
-13 -4 -16 -10z"/>
<path d="M956 568 c6 -9 40 -5 51 5 4 4 -7 7 -24 5 -18 -1 -29 -6 -27 -10z"/>
<path d="M1041 567 c-6 -8 -8 -17 -5 -20 10 -9 45 13 39 24 -9 13 -21 11 -34
-4z"/>
<path d="M1118 573 c6 -2 18 -2 25 0 6 3 1 5 -13 5 -14 0 -19 -2 -12 -5z"/>
<path d="M1291 570 c-1 -21 16 -46 26 -37 4 5 3 11 -3 15 -6 4 -14 14 -17 22
-5 13 -5 13 -6 0z"/>
<path d="M1680 570 c8 -5 26 -10 40 -10 20 0 22 2 10 10 -8 5 -26 10 -40 10
-20 0 -22 -2 -10 -10z"/>
<path d="M1210 560 c0 -5 16 -10 36 -10 21 0 33 4 29 10 -3 6 -19 10 -36 10
-16 0 -29 -4 -29 -10z"/>
<path d="M1380 554 c0 -8 5 -12 10 -9 6 4 8 11 5 16 -9 14 -15 11 -15 -7z"/>
<path d="M2060 556 c0 -9 5 -16 10 -16 6 0 10 4 10 9 0 6 -4 13 -10 16 -5 3
-10 -1 -10 -9z"/>
<path d="M2611 548 c-13 -21 -13 -22 1 -10 13 11 26 8 74 -14 123 -55 178 -74
215 -74 35 1 7 15 -61 30 -30 7 -71 20 -90 30 -19 9 -53 26 -75 36 -22 10 -42
20 -45 21 -3 2 -11 -7 -19 -19z"/>
<path d="M677 545 c2 -7 15 -10 29 -7 31 6 30 9 -5 14 -19 3 -27 0 -24 -7z"/>
<path d="M1425 550 c3 -5 8 -10 11 -10 2 0 4 5 4 10 0 6 -5 10 -11 10 -5 0 -7
-4 -4 -10z"/>
<path d="M1450 550 c0 -5 7 -7 15 -4 8 4 15 8 15 10 0 2 -7 4 -15 4 -8 0 -15
-4 -15 -10z"/>
<path d="M1770 550 c0 -5 5 -10 11 -10 5 0 7 5 4 10 -3 6 -8 10 -11 10 -2 0
-4 -4 -4 -10z"/>
<path d="M1860 550 c0 -5 5 -10 11 -10 5 0 7 5 4 10 -3 6 -8 10 -11 10 -2 0
-4 -4 -4 -10z"/>
<path d="M2420 556 c0 -2 9 -6 20 -9 11 -3 20 -1 20 4 0 5 -9 9 -20 9 -11 0
-20 -2 -20 -4z"/>
<path d="M809 534 c-12 -14 -11 -16 5 -13 11 2 21 10 24 17 5 17 -13 15 -29
-4z"/>
<path d="M870 540 c0 -5 5 -10 10 -10 6 0 10 5 10 10 0 6 -4 10 -10 10 -5 0
-10 -4 -10 -10z"/>
<path d="M1131 540 l-33 -5 52 -18 c29 -10 53 -17 55 -15 2 2 -6 12 -19 23
-16 14 -31 19 -55 15z"/>
<path d="M1322 525 c-10 -21 -9 -25 4 -25 8 0 12 5 9 10 -3 6 0 10 8 10 7 0
14 7 14 15 0 24 -23 17 -35 -10z"/>
<path d="M1660 540 c0 -6 7 -10 15 -10 8 0 15 2 15 4 0 2 -7 6 -15 10 -8 3
-15 1 -15 -4z"/>
<path d="M1828 543 c7 -3 16 -2 19 1 4 3 -2 6 -13 5 -11 0 -14 -3 -6 -6z"/>
<path d="M1990 543 c0 -18 24 -33 52 -33 15 0 28 -4 28 -10 0 -5 7 -7 15 -4
22 9 8 24 -21 24 -14 0 -36 7 -49 16 -14 9 -25 12 -25 7z"/>
<path d="M540 531 c0 -10 19 -25 25 -20 1 2 -3 10 -11 17 -8 7 -14 8 -14 3z"/>
<path d="M760 530 c0 -5 5 -10 11 -10 5 0 7 5 4 10 -3 6 -8 10 -11 10 -2 0 -4
-4 -4 -10z"/>
<path d="M953 529 c14 -8 22 -8 30 0 8 8 3 11 -18 11 -26 -1 -28 -2 -12 -11z"/>
<path d="M1000 535 c1 -27 18 -37 46 -27 l29 10 -25 1 c-15 1 -31 6 -38 13 -7
7 -12 8 -12 3z"/>
<path d="M2234 526 c15 -9 32 -13 37 -10 5 3 9 0 9 -6 0 -6 5 -8 11 -4 15 9
-4 19 -51 29 l-35 6 29 -15z"/>
<path d="M2528 533 c7 -3 16 -2 19 1 4 3 -2 6 -13 5 -11 0 -14 -3 -6 -6z"/>
<path d="M1241 519 c-13 -5 -22 -11 -20 -14 8 -7 49 7 49 16 0 5 -1 9 -2 8 -2
0 -14 -5 -27 -10z"/>
<path d="M1472 520 c2 -7 19 -14 37 -15 38 -3 30 10 -13 21 -21 5 -27 3 -24
-6z"/>
<path d="M1580 511 c0 -5 5 -13 10 -16 6 -3 10 -2 10 4 0 5 -4 13 -10 16 -5 3
-10 2 -10 -4z"/>
<path d="M2122 503 c2 -9 9 -18 16 -21 18 -6 15 25 -4 32 -11 4 -14 1 -12 -11z"/>
<path d="M2175 510 c-3 -5 -1 -10 4 -10 6 0 11 5 11 10 0 6 -2 10 -4 10 -3 0
-8 -4 -11 -10z"/>
<path d="M1897 503 c-4 -3 -7 -11 -7 -17 0 -6 5 -5 12 2 6 6 9 14 7 17 -3 3
-9 2 -12 -2z"/>
<path d="M1947 504 c-16 -16 -6 -34 19 -34 19 0 25 5 22 17 -3 19 -29 29 -41
17z"/>
<path d="M2504 503 c12 -13 -16 -33 -33 -23 -10 5 -23 5 -32 0 -12 -8 -12 -11
1 -24 16 -16 64 -11 54 5 -3 5 6 13 20 19 31 12 32 16 5 23 -12 3 -18 3 -15 0z"/>
<path d="M787 483 c3 -7 -3 -10 -19 -7 -18 4 -20 3 -8 -5 23 -14 230 -9 230 6
0 15 -65 24 -146 21 -42 -2 -60 -7 -57 -15z"/>
<path d="M1686 485 c-3 -8 -1 -15 3 -15 5 0 11 7 15 15 3 8 1 15 -3 15 -5 0
-11 -7 -15 -15z"/>
<path d="M1801 491 c-10 -6 -10 -10 -1 -16 13 -8 24 -1 19 14 -3 6 -10 7 -18
2z"/>
<path d="M410 479 c0 -5 5 -7 10 -4 6 3 10 8 10 11 0 2 -4 4 -10 4 -5 0 -10
-5 -10 -11z"/>
<path d="M2250 480 c-13 -8 -12 -10 3 -10 9 0 17 5 17 10 0 12 -1 12 -20 0z"/>
<path d="M2657 476 c-12 -10 -15 -16 -7 -21 6 -4 17 0 23 8 7 8 19 17 27 20
11 4 9 6 -5 6 -11 0 -28 -6 -38 -13z"/>
<path d="M1585 470 c-3 -5 -1 -10 6 -10 7 0 4 -7 -7 -15 -17 -13 -16 -14 14
-4 26 9 30 14 21 25 -14 16 -25 18 -34 4z"/>
<path d="M2340 462 c0 -4 10 -9 22 -9 18 -2 20 0 8 7 -18 12 -30 13 -30 2z"/>
<path d="M1260 451 c0 -14 29 -22 56 -15 16 4 31 1 42 -9 15 -14 43 -21 66
-18 4 0 -2 10 -15 21 l-24 19 33 -9 c18 -5 32 -5 32 0 0 5 -19 11 -42 14 -69
7 -148 6 -148 -3z"/>
<path d="M1730 451 c0 -6 4 -13 10 -16 6 -3 7 1 4 9 -7 18 -14 21 -14 7z"/>
<path d="M2558 453 c6 -2 10 -9 6 -14 -3 -5 0 -9 5 -9 6 0 11 7 11 15 0 8 -8
15 -17 14 -11 0 -13 -3 -5 -6z"/>
<path d="M2930 451 c0 -5 13 -14 29 -21 17 -7 32 -21 34 -33 4 -19 4 -19 5 3
1 14 -2 30 -6 36 -9 14 -62 27 -62 15z"/>
<path d="M60 433 c0 -10 4 -14 8 -8 4 6 11 13 16 18 5 4 2 7 -7 7 -10 0 -17
-8 -17 -17z"/>
<path d="M1912 434 c-17 -11 -26 -12 -42 -4 -15 8 -25 7 -41 -3 -19 -14 -18
-15 24 -21 49 -8 73 -1 81 21 9 23 3 25 -22 7z"/>
<path d="M1992 426 c2 -18 8 -26 21 -26 11 0 15 4 11 12 -5 7 -2 9 9 5 11 -4
14 -2 10 9 -3 7 -9 14 -13 14 -5 0 -15 3 -24 6 -12 5 -15 0 -14 -20z"/>
<path d="M2627 443 c-4 -3 -7 -16 -6 -27 0 -19 1 -19 10 3 10 24 8 36 -4 24z"/>
<path d="M0 409 c0 -18 3 -29 7 -25 10 10 11 46 1 52 -4 3 -8 -9 -8 -27z"/>
<path d="M1770 424 c0 -12 4 -12 20 -4 11 6 20 12 20 13 0 2 -9 3 -20 4 -12 1
-20 -4 -20 -13z"/>
<path d="M1330 420 c-12 -8 -10 -10 8 -10 13 0 20 4 17 10 -7 12 -6 12 -25 0z"/>
<path d="M2420 415 c0 -8 4 -15 10 -15 5 0 7 7 4 15 -4 8 -8 15 -10 15 -2 0
-4 -7 -4 -15z"/>
<path d="M1946 408 c3 -4 9 -8 15 -8 5 0 9 4 9 8 0 5 -7 9 -15 9 -8 0 -12 -4
-9 -9z"/>
<path d="M2141 386 c-10 -12 -8 -13 8 -9 12 3 21 9 21 14 0 14 -16 11 -29 -5z"/>
<path d="M2520 396 c0 -2 7 -6 15 -10 8 -3 15 -1 15 4 0 6 -7 10 -15 10 -8 0
-15 -2 -15 -4z"/>
<path d="M2515 360 c4 -6 11 -8 16 -5 14 9 11 15 -7 15 -8 0 -12 -5 -9 -10z"/>
<path d="M2980 323 c0 -4 5 -15 10 -23 8 -13 10 -13 10 2 0 9 -4 20 -10 23 -5
3 -10 3 -10 -2z"/>
</g>
</svg>
